<svg xmlns="http://www.w3.org/2000/svg" width="24" height="24" viewBox="0 0 24 24" fill="none">
  <!-- TRAIN: weightlifter with barbell (solid icon, small-size friendly) -->
  <g fill="currentColor">
    <rect x="2" y="3" width="20" height="2" rx="1"/>
    <rect x="3" y="2" width="2" height="4" rx="1"/>
    <rect x="19" y="2" width="2" height="4" rx="1"/>
    <rect x="6" y="5" width="2" height="6" rx="1"/>
    <rect x="16" y="5" width="2" height="6" rx="1"/>
    <circle cx="12" cy="9" r="2"/>
    <path d="M7.5 12a1 1 0 0 1 .3-.71l2.2-2.19h4l2.2 2.19a1 1 0 0 1 .3.71v4.5a1 1 0 0 1-1 1H8.5a1 1 0 0 1-1-1V12z"/>
    <path d="M9 17.5 7.1 22h2.2l1.7-4.5H9zm6 0-1.7 4.5h2.2l1.9-4.5H15z"/>
  </g>
</svg>

